<svg id="Capa_1" enable-background="new 0 0 512.068 512.068" height="512" viewBox="0 0 512.068 512.068" width="512" xmlns="http://www.w3.org/2000/svg"><g><g><ellipse cx="256.241" cy="256.807" fill="#ff9eb1" rx="245.828" ry="245.782"/><g fill="#43689e"><path d="m337.338 273.093c-14.112 0-25.551-11.438-25.551-25.546v-48.877c0-14.109 11.44-25.546 25.551-25.546 14.112 0 25.551 11.438 25.551 25.546v48.877c0 14.109-11.439 25.546-25.551 25.546z"/><path d="m174.662 273.093c-14.112 0-25.551-11.438-25.551-25.546v-48.877c0-14.109 11.44-25.546 25.551-25.546 14.112 0 25.551 11.438 25.551 25.546v48.877c0 14.109-11.439 25.546-25.551 25.546z"/></g></g><g><g><g><path d="m467.27 111.437c-3.125-4.554-9.351-5.71-13.904-2.586-4.553 3.126-5.711 9.351-2.585 13.904 64.214 93.553 52.479 219.783-27.902 300.15-92.017 92-241.739 92-333.756 0-44.575-44.566-69.123-103.819-69.123-166.843 0-63.025 24.548-122.278 69.122-166.845 80.303-80.287 206.479-92.073 300.021-28.028 4.558 3.12 10.781 1.956 13.9-2.602 3.121-4.557 1.956-10.78-2.602-13.9-101.479-69.483-238.355-56.704-325.46 30.387-48.352 48.343-74.981 112.62-74.981 180.988 0 68.367 26.629 132.644 74.981 180.986 48.352 48.344 112.639 74.968 181.019 74.968s132.667-26.624 181.019-74.968c87.194-87.177 99.917-224.116 30.251-325.611z"/><path d="m420.13 88.27c1.606 3.853 5.532 6.37 9.712 6.167 4.12-.2 7.773-3.009 9.038-6.932 1.307-4.056-.18-8.647-3.641-11.144-3.298-2.38-7.792-2.523-11.232-.351-4.053 2.557-5.718 7.838-3.877 12.26z"/><path d="m119.678 377.908c3.905 3.904 10.236 3.906 14.142.001 67.371-67.354 176.99-67.355 244.36 0 1.953 1.953 4.511 2.929 7.07 2.929 2.56 0 5.119-.977 7.072-2.93 3.905-3.905 3.904-10.237-.001-14.142-75.167-75.154-197.474-75.153-272.641 0-3.906 3.905-3.907 10.237-.002 14.142z"/><path d="m389.706 115.848c1.934-5.173-.693-10.935-5.867-12.867-15.101-5.643-35.505-3.09-55.98 7.003-18.919 9.328-33.67 23.146-38.498 36.061-1.934 5.173.692 10.935 5.865 12.868 1.154.431 2.337.636 3.5.636 4.053 0 7.866-2.482 9.369-6.502 6.181-16.535 46.223-39.744 68.743-31.331 5.174 1.936 10.935-.694 12.868-5.868z"/><path d="m216.774 158.912c5.173-1.935 7.799-7.695 5.865-12.869-4.828-12.915-19.58-26.731-38.499-36.06-20.473-10.094-40.876-12.647-55.98-7.003-5.173 1.933-7.8 7.694-5.867 12.867 1.933 5.174 7.695 7.801 12.868 5.867 22.521-8.409 62.563 14.796 68.744 31.332 1.502 4.02 5.315 6.501 9.368 6.501 1.164.001 2.348-.204 3.501-.635z"/><path d="m337.338 163.123c-19.603 0-35.551 15.946-35.551 35.547v48.877c0 19.6 15.948 35.546 35.551 35.546s35.551-15.946 35.551-35.546v-48.877c0-19.6-15.948-35.547-35.551-35.547zm15.551 84.424c0 8.572-6.976 15.546-15.551 15.546s-15.551-6.974-15.551-15.546v-48.877c0-8.572 6.976-15.547 15.551-15.547s15.551 6.975 15.551 15.547z"/><path d="m174.662 163.123c-19.603 0-35.551 15.946-35.551 35.547v48.877c0 19.6 15.948 35.546 35.551 35.546s35.551-15.946 35.551-35.546v-48.877c0-19.6-15.948-35.547-35.551-35.547zm15.551 84.424c0 8.572-6.976 15.546-15.551 15.546s-15.551-6.974-15.551-15.546v-48.877c0-8.572 6.976-15.547 15.551-15.547s15.551 6.975 15.551 15.547z"/></g></g></g></g></svg>