<svg id="Capa_1" enable-background="new 0 0 512.068 512.068" height="512" viewBox="0 0 512.068 512.068" width="512" xmlns="http://www.w3.org/2000/svg"><g><g><g><ellipse cx="256.241" cy="256.806" fill="#fff08a" rx="245.828" ry="245.782"/></g><g fill="#43689e"><path d="m337.338 223.951c-14.112 0-25.551-11.438-25.551-25.546v-19.025c0-14.109 11.44-25.546 25.551-25.546 14.112 0 25.551 11.438 25.551 25.546v19.025c0 14.108-11.439 25.546-25.551 25.546z"/><path d="m174.662 223.951c-14.112 0-25.551-11.438-25.551-25.546v-19.025c0-14.109 11.44-25.546 25.551-25.546 14.112 0 25.551 11.438 25.551 25.546v19.025c0 14.108-11.439 25.546-25.551 25.546z"/></g></g><g><path d="m467.27 111.437c-3.125-4.554-9.35-5.711-13.904-2.586-4.553 3.126-5.711 9.351-2.585 13.904 64.214 93.553 52.479 219.783-27.902 300.15-92.017 91.999-241.739 92.001-333.756 0-44.575-44.566-69.123-103.819-69.123-166.843 0-63.025 24.548-122.278 69.122-166.845 80.303-80.286 206.479-92.073 300.021-28.028 4.557 3.119 10.781 1.957 13.9-2.602 3.121-4.557 1.956-10.78-2.602-13.9-101.479-69.483-238.355-56.704-325.46 30.387-48.352 48.343-74.981 112.619-74.981 180.988 0 68.367 26.629 132.644 74.981 180.986 48.352 48.344 112.639 74.968 181.019 74.968s132.667-26.624 181.019-74.968c87.194-87.177 99.917-224.116 30.251-325.611z"/><path d="m423.81 92.76c3.525 2.304 8.164 2.217 11.549-.316 3.333-2.493 4.782-6.917 3.57-10.897-1.187-3.901-4.703-6.715-8.76-7.06-4.218-.358-8.294 2.106-9.975 5.983-1.9 4.383-.36 9.637 3.616 12.29z"/><path d="m372.889 198.404v-19.024c0-19.601-15.948-35.547-35.551-35.547s-35.551 15.946-35.551 35.547v19.024c0 19.601 15.948 35.547 35.551 35.547s35.551-15.946 35.551-35.547zm-51.102 0v-19.024c0-8.572 6.976-15.547 15.551-15.547s15.551 6.975 15.551 15.547v19.024c0 8.572-6.976 15.547-15.551 15.547s-15.551-6.974-15.551-15.547z"/><path d="m210.213 198.404v-19.024c0-19.601-15.948-35.547-35.551-35.547s-35.551 15.946-35.551 35.547v19.024c0 19.601 15.948 35.547 35.551 35.547s35.551-15.946 35.551-35.547zm-51.102 0v-19.024c0-8.572 6.976-15.547 15.551-15.547s15.551 6.975 15.551 15.547v19.024c0 8.572-6.976 15.547-15.551 15.547s-15.551-6.974-15.551-15.547z"/><path d="m133.135 362.286c1.978 2.334 4.796 3.534 7.633 3.534 2.285 0 4.582-.778 6.461-2.372.554-.47 56.472-46.986 146.608-46.986 55.392 0 67.399 29.022 67.883 30.258l.999 2.097c2.254 4.729 7.726 6.981 12.656 5.208 5.879-2.115 8.491-8.963 5.515-14.456-8.536-15.758-31.266-43.106-87.053-43.106-97.396 0-157.049 49.618-159.541 51.73-4.212 3.571-4.732 9.88-1.161 14.093z"/></g></g></svg>