<svg id="Capa_1" enable-background="new 0 0 512.068 512.068" height="512" viewBox="0 0 512.068 512.068" width="512" xmlns="http://www.w3.org/2000/svg"><g><g><ellipse cx="256.241" cy="256.806" fill="#fff08a" rx="245.828" ry="245.782"/><g fill="#43689e"><path d="m337.338 214c-14.112 0-25.551-11.438-25.551-25.546v-48.877c0-14.109 11.44-25.546 25.551-25.546 14.112 0 25.551 11.437 25.551 25.546v48.877c0 14.109-11.439 25.546-25.551 25.546z"/><path d="m174.662 214c-14.112 0-25.551-11.438-25.551-25.546v-48.877c0-14.109 11.44-25.546 25.551-25.546 14.112 0 25.551 11.437 25.551 25.546v48.877c0 14.109-11.439 25.546-25.551 25.546z"/></g><g><path d="m387.302 269.923v21.39c0 11.148-1.389 21.962-4.009 32.292-7.161 28.304-23.522 52.954-45.714 70.563-22.399 17.786-50.748 28.412-81.579 28.412s-59.179-10.626-81.579-28.412c-22.192-17.609-38.553-42.259-45.714-70.563-2.62-10.331-4.009-21.144-4.009-32.292v-21.39z" fill="#ff7d97"/></g><path d="m387.302 269.923v21.39c0 .111 0 .223-.001.334-.044 17.705-14.593 31.958-32.301 31.958h-198c-17.708 0-32.257-14.253-32.301-31.958 0-.111 0-.223 0-.334v-21.39z" fill="#faf7f5"/><path d="m337.579 394.169c-22.399 17.786-50.748 28.412-81.579 28.412s-59.179-10.626-81.579-28.412c19.454-23.38 48.778-38.26 81.579-38.26s62.125 14.88 81.579 38.26z" fill="#ff9eb1"/></g><g><g><g><path d="m467.27 111.437c-3.125-4.554-9.351-5.71-13.904-2.585s-5.711 9.35-2.585 13.904c64.213 93.552 52.479 219.784-27.902 300.15-92.017 91.999-241.739 91.999-333.756 0-44.575-44.567-69.123-103.819-69.123-166.845s24.548-122.278 69.122-166.844c80.302-80.287 206.479-92.076 300.021-28.028 4.558 3.119 10.781 1.955 13.9-2.602 3.121-4.557 1.956-10.781-2.602-13.9-101.479-69.482-238.355-56.703-325.46 30.386-48.352 48.344-74.981 112.62-74.981 180.988s26.629 132.644 74.981 180.988c48.352 48.343 112.639 74.966 181.019 74.966s132.667-26.624 181.019-74.966c87.194-87.178 99.916-224.117 30.251-325.612z"/><path d="m420.13 88.27c1.621 3.954 5.757 6.49 10.019 6.147 4.003-.322 7.499-3.09 8.731-6.911 1.284-3.984-.123-8.439-3.434-10.989-3.351-2.582-8.117-2.728-11.636-.386-3.917 2.606-5.488 7.799-3.68 12.139z"/><path d="m372.889 188.454v-48.876c0-19.6-15.948-35.546-35.551-35.546s-35.551 15.946-35.551 35.546v48.876c0 19.601 15.948 35.546 35.551 35.546s35.551-15.946 35.551-35.546zm-51.102 0v-48.876c0-8.572 6.976-15.546 15.551-15.546s15.551 6.974 15.551 15.546v48.876c0 8.572-6.976 15.546-15.551 15.546s-15.551-6.974-15.551-15.546z"/><path d="m210.213 188.454v-48.876c0-19.6-15.948-35.546-35.551-35.546s-35.551 15.946-35.551 35.546v48.876c0 19.601 15.948 35.546 35.551 35.546s35.551-15.946 35.551-35.546zm-51.102 0v-48.876c0-8.572 6.976-15.546 15.551-15.546s15.551 6.974 15.551 15.546v48.876c0 8.572-6.976 15.546-15.551 15.546s-15.551-6.974-15.551-15.546z"/><path d="m387.302 259.923h-262.604c-5.523 0-10 4.477-10 10v21.381.01.031.328c0 .135.01.267.011.401.061 11.51 1.502 22.942 4.303 33.984 7.534 29.78 25.004 56.749 49.19 75.942s.001 0 .001.001c.001 0 .001.001.002.001 0 0 .001 0 .001.001 25.195 20.004 55.553 30.578 87.793 30.578 32.241 0 62.599-10.574 87.793-30.578 0 0 .001 0 .001-.001.001 0 .001-.001.002-.001 0 0 .001 0 .001-.001 24.187-19.192 41.656-46.163 49.189-75.936 2.807-11.067 4.249-22.518 4.306-34.046.001-.124.01-.247.01-.371v-.303c0-.01 0-.021 0-.031 0-.003 0-.006 0-.01v-21.381c.001-5.522-4.476-9.999-9.999-9.999zm-10 20v11.421c0 .205-.008.409-.009.615-.213 11.966-10.139 21.647-22.292 21.647h-198.001c-12.161 0-22.091-9.692-22.292-21.687-.001-.192-.009-.383-.009-.574v-11.421h242.603zm-121.302 132.658c-24.028 0-46.836-6.84-66.581-19.875 17.818-17.144 41.55-26.797 66.581-26.797s48.763 9.654 66.581 26.797c-19.744 13.035-42.553 19.875-66.581 19.875zm82.429-32.328c-21.731-21.938-51.243-34.345-82.429-34.345s-60.697 12.407-82.429 34.345c-14.696-13.643-25.893-30.826-32.371-49.706 4.887 1.966 10.218 3.059 15.8 3.059h198c5.583 0 10.914-1.093 15.801-3.059-6.478 18.878-17.674 36.062-32.372 49.706z"/></g></g></g></g></svg>