<svg id="Capa_1" enable-background="new 0 0 512.068 512.068" height="512" viewBox="0 0 512.068 512.068" width="512" xmlns="http://www.w3.org/2000/svg"><g><g><ellipse cx="256.241" cy="256.806" fill="#ccf5fc" rx="245.828" ry="245.782"/><path d="m132.028 332.271c.376 28.861-22.72 52.563-51.587 52.939s-52.573-22.716-52.949-51.577 51.206-82.153 51.206-82.153 52.953 51.93 53.33 80.791z" fill="#faf7f5"/><g fill="#43689e"><path d="m337.338 277.152c-14.112 0-25.551-11.438-25.551-25.546v-19.025c0-14.109 11.44-25.546 25.551-25.546 14.112 0 25.551 11.438 25.551 25.546v19.025c0 14.108-11.439 25.546-25.551 25.546z"/><path d="m174.662 277.152c-14.112 0-25.551-11.438-25.551-25.546v-19.025c0-14.109 11.44-25.546 25.551-25.546 14.112 0 25.551 11.438 25.551 25.546v19.025c0 14.108-11.439 25.546-25.551 25.546z"/></g></g><g><path d="m467.271 111.436c-3.126-4.554-9.35-5.711-13.904-2.586-4.554 3.126-5.711 9.351-2.586 13.904 64.214 93.553 52.479 219.784-27.902 300.15-92.018 92-241.738 92-333.756 0-9.31-9.309-17.733-19.265-25.255-29.756 5.076 1.341 10.396 2.065 15.88 2.065.274 0 .549-.002.824-.006 16.632-.217 32.184-6.896 43.791-18.808 11.608-11.912 17.881-27.631 17.664-44.26-.417-32.059-50.605-82.19-56.326-87.801-1.902-1.866-4.461-2.937-7.132-2.859-2.663.034-5.203 1.13-7.055 3.044-4.142 4.28-32.197 33.786-46.159 61.818-3.53-16.336-5.355-33.167-5.355-50.28 0-63.025 24.548-122.278 69.122-166.845 80.302-80.287 206.48-92.075 300.021-28.028 4.556 3.119 10.779 1.956 13.9-2.602 3.12-4.557 1.956-10.78-2.602-13.9-101.479-69.48-238.354-56.703-325.46 30.388-48.352 48.343-74.981 112.619-74.981 180.987 0 68.367 26.629 132.644 74.981 180.986 48.352 48.344 112.639 74.968 181.019 74.968s132.667-26.624 181.019-74.968c87.194-87.176 99.917-224.116 30.252-325.611zm-388.382 154.518c18.926 19.985 42.932 50.535 43.139 66.447v.001c.147 11.287-4.111 21.956-11.99 30.041-7.88 8.086-18.437 12.62-29.728 12.768-.188.002-.372.004-.559.004-23.053-.002-41.959-18.599-42.26-41.712-.207-15.887 23-47.065 41.398-67.549z"/><path d="m423.81 92.758c3.625 2.419 8.524 2.172 11.894-.583 3.189-2.607 4.439-7.047 3.126-10.941-1.296-3.847-4.924-6.551-8.965-6.77-4.172-.226-8.139 2.298-9.734 6.154-1.793 4.333-.266 9.555 3.679 12.14z"/><path d="m372.89 251.605v-19.024c0-19.601-15.948-35.547-35.552-35.547-19.603 0-35.551 15.946-35.551 35.547v19.024c0 19.601 15.948 35.547 35.551 35.547s35.552-15.946 35.552-35.547zm-51.103 0v-19.024c0-8.572 6.976-15.547 15.551-15.547s15.552 6.975 15.552 15.547v19.024c0 8.572-6.977 15.547-15.552 15.547s-15.551-6.975-15.551-15.547z"/><path d="m174.662 287.152c19.603 0 35.551-15.946 35.551-35.547v-19.024c0-19.601-15.948-35.547-35.551-35.547s-35.551 15.946-35.551 35.547v19.024c0 19.601 15.948 35.547 35.551 35.547zm-15.551-54.571c0-8.572 6.976-15.547 15.551-15.547s15.551 6.975 15.551 15.547v19.024c0 8.572-6.976 15.547-15.551 15.547s-15.551-6.975-15.551-15.547z"/><path d="m394.365 186.473c5.488-.618 9.437-5.567 8.819-11.056s-5.576-9.438-11.056-8.819c-7.308.831-17.724-3.643-27.168-11.656-10.152-8.614-15.37-17.809-15.921-22.706-.618-5.489-5.577-9.435-11.056-8.819-5.488.618-9.437 5.567-8.819 11.056 2.541 22.569 34.302 52.216 61.293 52.216 1.315-.001 2.62-.071 3.908-.216z"/><path d="m182.835 134.473c.618-5.488-3.33-10.438-8.818-11.057-5.491-.628-10.438 3.33-11.056 8.818-.552 4.898-5.769 14.093-15.921 22.707-9.444 8.013-19.853 12.479-27.168 11.656-5.497-.633-10.438 3.331-11.056 8.819-.617 5.488 3.331 10.438 8.819 11.056 1.29.145 2.59.215 3.907.215 26.99.001 58.752-29.646 61.293-52.214z"/><path d="m208.68 372.862c26.092-26.085 68.548-26.087 94.64 0 1.952 1.953 4.512 2.929 7.07 2.929 2.56 0 5.119-.977 7.071-2.93 3.905-3.905 3.904-10.237-.001-14.142-33.889-33.886-89.033-33.884-122.921 0-3.906 3.904-3.906 10.236-.001 14.142 3.904 3.904 10.236 3.905 14.142.001z"/></g></g></svg>