<svg id="Capa_1" enable-background="new 0 0 512.068 512.068" height="512" viewBox="0 0 512.068 512.068" width="512" xmlns="http://www.w3.org/2000/svg"><g><g><ellipse cx="256.241" cy="256.807" fill="#ccf5fc" rx="245.828" ry="245.782"/><g fill="#faf7f5"><ellipse cx="355.443" cy="235.544" rx="55.849" ry="55.838"/><ellipse cx="156.557" cy="235.544" rx="55.849" ry="55.838"/></g></g><g><path d="m467.27 111.437c-3.125-4.554-9.351-5.711-13.904-2.586-4.553 3.126-5.711 9.351-2.585 13.904 64.213 93.553 52.479 219.784-27.902 300.15-92.017 92-241.739 92-333.756 0-44.575-44.566-69.123-103.819-69.123-166.843 0-63.025 24.548-122.278 69.122-166.845 80.303-80.286 206.479-92.073 300.021-28.028 4.558 3.12 10.781 1.956 13.9-2.602 3.121-4.557 1.956-10.78-2.602-13.9-101.479-69.483-238.355-56.704-325.46 30.387-48.352 48.343-74.981 112.619-74.981 180.988 0 68.367 26.629 132.644 74.981 180.986 48.352 48.344 112.639 74.968 181.019 74.968s132.667-26.624 181.019-74.968c87.194-87.177 99.916-224.116 30.251-325.611z"/><path d="m423.81 92.759c3.576 2.389 8.395 2.179 11.765-.481 3.236-2.554 4.564-6.969 3.305-10.887-1.294-4.024-5.106-6.869-9.336-6.945-4.184-.075-8.061 2.567-9.534 6.48-1.609 4.274-.043 9.317 3.8 11.833z"/><path d="m421.292 235.544c0-36.303-29.54-65.838-65.849-65.838s-65.849 29.535-65.849 65.838c0 36.304 29.54 65.839 65.849 65.839s65.849-29.535 65.849-65.839zm-111.697 0c0-25.275 20.567-45.838 45.849-45.838s45.849 20.563 45.849 45.838-20.567 45.839-45.849 45.839-45.849-20.564-45.849-45.839z"/><path d="m354.15 231.719c-1.639-3.932-5.69-6.456-9.949-6.148-4.202.304-7.846 3.315-8.941 7.382-1.037 3.848.396 8.111 3.574 10.527 3.383 2.572 8.094 2.725 11.636.379 3.921-2.597 5.488-7.804 3.68-12.14z"/><path d="m156.557 301.383c36.309 0 65.849-29.535 65.849-65.839 0-36.303-29.54-65.838-65.849-65.838-36.31 0-65.849 29.535-65.849 65.838 0 36.304 29.54 65.839 65.849 65.839zm0-111.677c25.281 0 45.849 20.563 45.849 45.838s-20.567 45.839-45.849 45.839-45.849-20.563-45.849-45.839 20.568-45.838 45.849-45.838z"/><path d="m161.53 243.859c3.501 2.295 8.129 2.218 11.508-.282 3.356-2.483 4.827-6.945 3.612-10.938-1.211-3.98-4.872-6.855-9.029-7.08-4.312-.233-8.368 2.431-9.891 6.463-1.623 4.293-.025 9.291 3.8 11.837z"/><path d="m319.508 114.53c-4.705 2.892-6.176 9.05-3.284 13.755 2.893 4.706 9.051 6.178 13.756 3.284 12.712-7.813 53.061-2.148 63.73 15.205 1.888 3.072 5.168 4.765 8.528 4.764 1.786 0 3.595-.479 5.228-1.482 4.705-2.893 6.174-9.051 3.281-13.756-7.66-12.459-23.613-21.994-43.768-26.16-14.588-3.014-34.72-3.445-47.471 4.39z"/><path d="m109.763 151.538c3.359 0 6.64-1.692 8.528-4.764 10.668-17.354 51.016-23.017 63.729-15.205 4.706 2.893 10.864 1.423 13.756-3.284 2.892-4.705 1.421-10.863-3.284-13.755-12.75-7.836-32.882-7.405-47.471-4.391-20.156 4.166-36.109 13.701-43.769 26.16-2.892 4.705-1.423 10.863 3.282 13.756 1.634 1.006 3.442 1.484 5.229 1.483z"/><path d="m185.612 375.791c2.559 0 5.118-.977 7.07-2.929 34.914-34.906 91.722-34.906 126.635 0 3.905 3.906 10.237 3.905 14.142-.001 3.905-3.905 3.904-10.237-.001-14.142-42.709-42.703-112.206-42.705-154.916 0-3.906 3.904-3.906 10.236-.001 14.142 1.953 1.954 4.511 2.93 7.071 2.93z"/></g></g></svg>