<svg id="Capa_1" enable-background="new 0 0 512.068 512.068" height="512" viewBox="0 0 512.068 512.068" width="512" xmlns="http://www.w3.org/2000/svg"><g><g><g><ellipse cx="256.241" cy="256.806" fill="#fff08a" rx="245.828" ry="245.782"/></g><g fill="#43689e"><path d="m337.338 256.767c-14.112 0-25.551-11.438-25.551-25.546v-19.025c0-14.109 11.44-25.546 25.551-25.546 14.112 0 25.551 11.438 25.551 25.546v19.025c0 14.108-11.439 25.546-25.551 25.546z"/><path d="m174.662 256.767c-14.112 0-25.551-11.438-25.551-25.546v-19.025c0-14.109 11.44-25.546 25.551-25.546 14.112 0 25.551 11.438 25.551 25.546v19.025c0 14.108-11.439 25.546-25.551 25.546z"/></g><path d="m443.412 299.892c9.698 18.788 2.327 41.879-16.464 51.576s-41.887 2.327-51.586-16.461c-9.698-18.788 6.647-70.594 6.647-70.594s51.705 16.691 61.403 35.479z" fill="#ccf5fc"/></g><g><g><path d="m467.271 111.436c-3.126-4.554-9.35-5.709-13.904-2.586-4.554 3.126-5.711 9.351-2.586 13.904 64.215 93.553 52.479 219.784-27.902 300.15-92.018 92-241.738 92-333.756 0-44.575-44.565-69.123-103.818-69.123-166.843s24.548-122.278 69.122-166.845c80.302-80.287 206.48-92.075 300.021-28.028 4.556 3.118 10.779 1.956 13.9-2.602 3.12-4.557 1.956-10.78-2.602-13.9-101.479-69.48-238.354-56.703-325.46 30.388-48.352 48.343-74.981 112.619-74.981 180.987 0 68.367 26.629 132.644 74.981 180.986 48.352 48.344 112.639 74.968 181.019 74.968s132.667-26.624 181.019-74.968c87.194-87.176 99.917-224.116 30.252-325.611z"/><path d="m423.81 92.759c3.605 2.356 8.372 2.198 11.765-.481 3.233-2.552 4.563-6.971 3.305-10.888-1.292-4.023-5.107-6.869-9.336-6.945-4.183-.076-8.062 2.568-9.534 6.48-1.616 4.294-.016 9.289 3.8 11.834z"/><path d="m372.89 231.22v-19.024c0-19.601-15.948-35.547-35.552-35.547-19.603 0-35.551 15.946-35.551 35.547v19.024c0 19.6 15.948 35.546 35.551 35.546s35.552-15.946 35.552-35.546zm-20 0c0 8.572-6.977 15.546-15.552 15.546s-15.551-6.974-15.551-15.546v-19.024c0-8.572 6.976-15.547 15.551-15.547s15.552 6.975 15.552 15.547z"/><path d="m174.662 266.766c19.603 0 35.551-15.946 35.551-35.546v-19.024c0-19.601-15.948-35.547-35.551-35.547s-35.551 15.946-35.551 35.547v19.024c0 19.6 15.948 35.546 35.551 35.546zm-15.551-54.57c0-8.572 6.976-15.547 15.551-15.547s15.551 6.975 15.551 15.547v19.024c0 8.572-6.976 15.546-15.551 15.546s-15.551-6.974-15.551-15.546z"/><path d="m170.721 380.838c2.559 0 5.118-.977 7.07-2.928 43.124-43.117 113.292-43.117 156.417 0 3.905 3.904 10.237 3.904 14.143-.002 3.904-3.905 3.903-10.237-.002-14.143-50.922-50.91-133.778-50.911-184.699.001-3.906 3.904-3.906 10.236-.001 14.142 1.954 1.953 4.512 2.93 7.072 2.93z"/><path d="m186.906 125.083c2.107-5.105-.323-10.952-5.428-13.059-5.108-2.109-10.952.323-13.059 5.428-1.88 4.557-9.431 11.957-21.566 17.439-11.286 5.1-22.525 6.522-29.33 3.717-5.108-2.106-10.953.324-13.058 5.431-2.106 5.105.325 10.951 5.43 13.058 4.82 1.988 10.206 2.885 15.844 2.885 24.538-.001 53.778-16.996 61.167-34.899z"/><path d="m394.478 138.608c-6.805 2.807-18.044 1.384-29.33-3.717-12.135-5.482-19.686-12.883-21.565-17.439-2.108-5.104-7.952-7.535-13.06-5.429-5.104 2.107-7.535 7.954-5.429 13.06 7.39 17.904 36.628 34.898 61.167 34.898 5.636 0 11.025-.896 15.844-2.885 5.105-2.106 7.537-7.952 5.431-13.058s-7.954-7.537-13.058-5.43z"/><path d="m409.468 365.726c7.448-.001 15.004-1.728 22.066-5.371 11.462-5.915 19.935-15.938 23.856-28.225 3.922-12.287 2.824-25.365-3.093-36.825-11.03-21.369-57.927-37.41-67.216-40.409-2.533-.817-5.291-.591-7.658.63-2.367 1.222-4.149 3.338-4.95 5.878-2.938 9.308-17.028 56.82-5.997 78.189 8.567 16.596 25.485 26.133 42.992 26.133zm-20.773-88.367c18.82 7.109 41.272 18.29 45.831 27.12 3.465 6.713 4.108 14.373 1.812 21.569-2.298 7.196-7.261 13.068-13.975 16.533-13.864 7.151-30.961 1.697-38.115-12.162-4.547-8.808-.654-33.593 4.447-53.06z"/></g></g></g></svg>