<svg id="Capa_1" enable-background="new 0 0 512.019 512.019" height="512" viewBox="0 0 512.019 512.019" width="512" xmlns="http://www.w3.org/2000/svg"><g><g><ellipse cx="256.26" cy="256.783" fill="#ccf5fc" rx="245.828" ry="245.782"/><g fill="#faf7f5"><ellipse cx="365.65" cy="204.026" rx="67.16" ry="67.147"/><ellipse cx="146.389" cy="204.026" rx="67.16" ry="67.147"/></g><g><path d="m214.033 375.508c-2.981-6.145-4.655-13.039-4.655-20.317v-21.067c0-25.748 20.879-46.633 46.641-46.633 12.877 0 24.546 5.221 32.978 13.661 8.441 8.44 13.663 20.098 13.663 32.972v21.067c0 7.278-1.674 14.173-4.655 20.317" fill="#ff7d97"/><path d="m298.006 375.508c-7.545 15.572-23.513 26.316-41.986 26.316-18.474 0-34.441-10.744-41.986-26.316 7.554-15.572 23.513-26.306 41.986-26.306 12.877 0 24.546 5.221 32.978 13.661 3.667 3.666 6.721 7.936 9.008 12.645z" fill="#ff9eb1"/></g><g fill="#faf7f5"><path d="m25.735 345.076c31.729-40.842 95.425-33.71 117.333 13.137l.146.312c17.159-6.232 36.723 2.882 42.465 20.973l11.112 52.581c2.02 9.556-2.385 19.32-10.886 24.132l-43.993 24.901c-30.853 17.463-69.864 9.477-91.369-18.705l-26.526-34.762c-17.723-24.884-17.024-58.444 1.718-82.569z"/><path d="m487.47 345.076c-31.729-40.842-95.425-33.71-117.333 13.137l-.146.312c-17.159-6.232-36.723 2.882-42.465 20.973l-11.112 52.581c-2.02 9.556 2.385 19.32 10.886 24.132l43.993 24.901c30.853 17.463 69.864 9.477 91.369-18.705l26.526-34.762c17.724-24.884 17.025-58.444-1.718-82.569z"/></g></g><g><g><path d="m423.829 92.736c3.53 2.358 8.264 2.187 11.636-.379 3.172-2.414 4.616-6.673 3.574-10.52-1.12-4.13-4.837-7.169-9.119-7.401-4.246-.23-8.273 2.361-9.831 6.314-1.696 4.305-.157 9.434 3.74 11.986z"/><path d="m442.809 204.025c0-42.539-34.613-77.146-77.159-77.146s-77.16 34.607-77.16 77.146 34.614 77.147 77.16 77.147 77.159-34.608 77.159-77.147zm-134.319 0c0-31.511 25.642-57.146 57.16-57.146s57.159 25.636 57.159 57.146-25.642 57.147-57.159 57.147c-31.518.001-57.16-25.636-57.16-57.147z"/><path d="m362.229 200.196c-1.626-3.901-5.667-6.425-9.889-6.133-4.118.285-7.708 3.104-8.911 7.061-1.191 3.917.189 8.298 3.435 10.803 3.332 2.571 7.998 2.763 11.538.496 4.027-2.577 5.634-7.817 3.827-12.227z"/><path d="m223.549 204.025c0-42.539-34.614-77.146-77.16-77.146s-77.159 34.607-77.159 77.146 34.613 77.147 77.159 77.147 77.16-34.608 77.16-77.147zm-77.16 57.148c-31.518 0-57.159-25.637-57.159-57.147s25.642-57.146 57.159-57.146c31.518 0 57.16 25.636 57.16 57.146s-25.642 57.147-57.16 57.147z"/><path d="m168.279 200.196c-1.629-3.906-5.657-6.426-9.887-6.133-4.051.28-7.618 3.03-8.863 6.905-1.272 3.958.115 8.466 3.434 10.989 3.383 2.572 8.094 2.725 11.637.379 3.944-2.613 5.463-7.784 3.679-12.14z"/><path d="m205.033 379.868c9.405 19.412 29.418 31.955 50.986 31.955s41.581-12.543 50.986-31.955c.003-.007.005-.014.009-.021 3.747-7.731 5.647-16.026 5.647-24.657v-21.066c0-15.125-5.893-29.347-16.589-40.041-10.69-10.699-24.915-16.592-40.053-16.592-31.232 0-56.642 25.405-56.642 56.633v21.066c0 8.631 1.9 16.926 5.647 24.657.004.007.006.014.009.021zm50.986 11.955c-12.268 0-23.76-6.274-30.493-16.326 6.744-10.161 18.029-16.296 30.493-16.296 9.792 0 18.992 3.811 25.907 10.732 1.713 1.713 3.244 3.577 4.579 5.573-6.733 10.048-18.221 16.317-30.486 16.317zm0-94.332c9.792 0 18.992 3.81 25.908 10.731 6.921 6.921 10.733 16.119 10.733 25.901v18.54c-10.219-8.705-23.059-13.463-36.642-13.463s-26.55 4.981-36.642 13.518v-18.595c.002-20.198 16.439-36.632 36.643-36.632z"/><path d="m497.345 341.6c27.274-77.053 16.106-162.935-30.056-230.187-3.125-4.554-9.35-5.71-13.904-2.586-4.553 3.126-5.711 9.351-2.585 13.904 40.609 59.162 51.818 133.973 30.896 202.432-16.118-12.708-36.628-18.7-57.69-16.34-24.987 2.798-46.618 16.873-59.236 38.168-8.419-1.158-17.142.202-24.884 4.013-10.552 5.195-18.326 14.24-21.89 25.469-.1.314-.185.635-.252.958l-11.112 52.581c-2.935 13.885 3.393 27.911 15.745 34.901l19.396 10.979c-54.524 21.122-116.217 21.219-170.811.268l19.869-11.246c12.352-6.991 18.68-21.018 15.745-34.902l-11.112-52.581c-.068-.323-.152-.643-.252-.958-3.563-11.228-11.337-20.272-21.889-25.468-7.743-3.813-16.463-5.17-24.884-4.014-12.617-21.295-34.248-35.369-59.236-38.168-21.488-2.405-42.39 3.87-58.644 17.098-25.691-83.117-3.371-174.786 58.582-236.729 80.302-80.286 206.478-92.075 300.02-28.028 4.557 3.119 10.78 1.955 13.901-2.602 3.12-4.557 1.955-10.78-2.602-13.9-101.479-69.482-238.355-56.702-325.459 30.388-35.301 35.294-59.345 79.664-69.53 128.312-9.754 46.584-6.415 94.71 9.624 139.356-8.771 12.743-13.567 27.562-13.891 43.15-.357 17.152 4.715 33.604 14.667 47.578.064.09.129.178.196.266l26.525 34.762c11.867 15.551 28.957 26.276 48.123 30.199 5.381 1.102 10.821 1.646 16.241 1.646 13.886-.001 27.636-3.574 39.88-10.505l2.153-1.219c33.297 15.303 70.22 23.396 107.039 23.396h.47c36.888-.069 73.87-8.268 107.189-23.693l2.68 1.517c12.246 6.931 25.994 10.504 39.88 10.504 5.419 0 10.861-.545 16.241-1.646 19.166-3.923 36.256-14.648 48.123-30.199l26.525-34.762c.067-.088.132-.176.196-.266 9.953-13.974 15.024-30.426 14.667-47.578-.331-16.044-5.387-31.278-14.654-44.268zm-438.853 114.741-26.421-34.626c-12.745-17.992-14.349-40.831-5-59.978l32.102 56.693c1.84 3.249 5.225 5.074 8.711 5.074 1.669 0 3.362-.419 4.918-1.3 4.806-2.722 6.496-8.823 3.774-13.63l-36.488-64.439c6.801-6.353 14.903-10.929 23.68-13.477l34.66 61.212c1.84 3.249 5.225 5.074 8.711 5.074 1.669 0 3.362-.419 4.918-1.3 4.806-2.722 6.496-8.823 3.774-13.63l-30.266-53.451c.469.042.939.083 1.409.135 20.268 2.27 37.575 14.469 46.529 32.709l12.669 64.913c.932 4.774 5.116 8.087 9.804 8.087.635 0 1.279-.061 1.926-.188 5.42-1.058 8.957-6.31 7.899-11.729l-10.909-55.896c3.294.083 6.58.868 9.594 2.352 5.484 2.7 9.561 7.357 11.52 13.146l11 52.053c1.123 5.315-1.299 10.686-6.029 13.362l-43.993 24.9c-26.367 14.928-60.112 8.02-78.492-16.066zm422.643-34.626-26.421 34.626c-18.379 24.087-52.123 30.992-78.493 16.069l-43.994-24.902c-4.729-2.676-7.151-8.046-6.028-13.361l11-52.054c1.96-5.788 6.036-10.445 11.521-13.146 3.014-1.484 6.299-2.269 9.593-2.352l-10.909 55.896c-1.058 5.42 2.479 10.672 7.899 11.729.647.127 1.291.188 1.926.188 4.688 0 8.873-3.313 9.804-8.087l12.669-64.912c8.956-18.243 26.262-30.441 46.529-32.71.47-.053.939-.094 1.409-.135l-30.266 53.451c-2.721 4.807-1.032 10.908 3.774 13.63 1.556.881 3.249 1.3 4.918 1.3 3.485 0 6.871-1.825 8.711-5.074l34.66-61.211c8.776 2.548 16.879 7.124 23.68 13.477l-36.487 64.438c-2.722 4.807-1.032 10.908 3.774 13.63 1.556.881 3.249 1.3 4.918 1.3 3.485 0 6.871-1.825 8.711-5.074l32.102-56.693c9.349 19.146 7.745 41.983-5 59.977z"/></g></g></g></svg>